<?xml version="1.0" standalone="no"?>
<!DOCTYPE svg PUBLIC "-//W3C//DTD SVG 20010904//EN"
 "http://www.w3.org/TR/2001/REC-SVG-20010904/DTD/svg10.dtd">
<svg version="1.0" xmlns="http://www.w3.org/2000/svg"
 width="576.000000pt" height="573.000000pt" viewBox="0 0 576.000000 573.000000"
 preserveAspectRatio="xMidYMid meet">

<g transform="translate(0.000000,573.000000) scale(0.100000,-0.100000)"
fill="#000000" stroke="none">
<path d="M0 2865 l0 -2865 2880 0 2880 0 0 2865 0 2865 -2880 0 -2880 0 0
-2865z m2225 300 c27 -7 52 -20 56 -27 5 -7 9 -38 8 -68 l0 -55 -23 51 c-29
64 -67 94 -117 94 -60 0 -85 -14 -103 -60 -33 -82 3 -136 150 -228 86 -53 118
-97 118 -160 -1 -98 -65 -159 -175 -167 -46 -4 -78 0 -114 12 -47 17 -50 20
-58 63 -9 56 -5 125 6 95 49 -128 119 -176 211 -145 47 15 66 44 66 98 0 71
-29 110 -137 182 -110 73 -133 103 -133 177 0 44 5 58 31 88 19 22 48 40 78
49 60 19 78 19 136 1z m569 -15 c123 0 226 4 242 10 15 6 27 9 28 8 6 -14 -8
-168 -15 -168 -5 0 -9 11 -9 25 0 38 -27 85 -56 95 -36 14 -128 12 -142 -2
-18 -18 -17 -534 1 -545 6 -4 30 -10 52 -14 23 -4 -17 -7 -95 -7 -77 0 -120 3
-100 7 20 4 41 11 48 15 9 5 12 76 12 276 0 235 -2 269 -16 274 -27 10 -112 7
-139 -6 -26 -12 -65 -73 -65 -103 0 -8 -4 -15 -8 -15 -4 0 -5 26 -1 58 4 31 8
70 8 85 1 24 3 26 20 17 12 -6 106 -10 235 -10z m-1231 -266 c126 -264 152
-308 192 -324 12 -5 -25 -9 -95 -9 -114 1 -120 2 -67 13 38 9 35 28 -23 151
l-49 106 -113 -3 -112 -3 -40 -94 c-48 -115 -45 -140 24 -158 42 -10 36 -11
-75 -12 -105 0 -116 2 -85 12 19 7 44 26 55 43 11 17 70 148 130 292 61 144
114 260 119 259 6 -2 68 -124 139 -273z m2807 193 c21 -45 83 -176 139 -290
90 -185 105 -210 134 -222 30 -13 25 -14 -83 -14 -114 1 -120 2 -67 13 38 9
35 28 -23 151 l-49 106 -113 -3 -112 -3 -33 -77 c-57 -131 -53 -164 23 -178
26 -5 0 -8 -81 -7 -66 0 -110 2 -98 4 47 9 78 59 167 269 48 115 100 237 115
271 14 35 30 63 34 63 5 0 26 -37 47 -83z m-757 55 c43 -29 56 -53 57 -105 0
-59 -18 -95 -66 -134 l-38 -30 48 -68 c95 -132 175 -209 241 -233 26 -9 22
-10 -40 -11 -41 0 -76 5 -85 12 -30 24 -118 133 -169 210 l-52 78 -47 -3 -47
-3 -3 -125 c-1 -69 2 -131 7 -138 4 -8 24 -18 42 -22 23 -5 -5 -8 -86 -8 -83
0 -109 3 -85 8 59 14 60 20 60 281 0 131 -4 249 -10 263 -6 16 -21 29 -42 35
-24 7 9 9 127 10 139 1 164 -2 188 -17z"/>
<path d="M1375 3004 c-14 -31 -25 -58 -25 -60 0 -2 -10 -25 -21 -49 -12 -25
-19 -48 -16 -51 7 -7 186 -9 192 -2 6 5 -93 218 -100 218 -3 0 -16 -25 -30
-56z"/>
<path d="M4292 3043 c-15 -29 -82 -192 -82 -201 0 -7 190 -4 198 3 3 2 -95
205 -103 213 -2 2 -8 -5 -13 -15z"/>
<path d="M3426 3118 c-12 -17 -16 -49 -16 -135 l0 -113 63 0 c72 0 102 16 123
66 30 71 5 162 -51 188 -49 24 -101 21 -119 -6z"/>
</g>
</svg>
